<svg width="256" height="256" viewBox="0 0 256 256" xmlns="http://www.w3.org/2000/svg" role="img" aria-labelledby="title desc">
  <title id="title">AgriFraud Detector Logo</title>
  <desc id="desc">Shield with leaf, magnifier, and check point mark</desc>
  <defs>
    <linearGradient id="shieldGrad" x1="0" y1="0" x2="1" y2="1">
      <stop offset="0%" stop-color="#7a3b8f"/>
      <stop offset="100%" stop-color="#5a2d7a"/>
    </linearGradient>
    <linearGradient id="accentGrad" x1="0" y1="0" x2="1" y2="1">
      <stop offset="0%" stop-color="#1aa6b7"/>
      <stop offset="100%" stop-color="#148a5f"/>
    </linearGradient>
  </defs>

  <path d="M128 16l74 22v63c0 64-42 109-74 129-32-20-74-65-74-129V38l74-22z" fill="none" stroke="url(#shieldGrad)" stroke-width="12"/>

  <path d="M88 47c18-6 31 0 39 13-15 0-26 8-33 23-13-8-15-24-6-36z" fill="url(#accentGrad)"/>

  <path d="M56 167c18-14 34-8 45 9-18 1-30 11-37 28-15-8-19-24-8-37z" fill="#5a2d7a" opacity="0.9"/>
  <path d="M72 160c15-12 28-7 37 8-15 1-25 10-30 24-12-7-15-20-7-32z" fill="#7a3b8f"/>

  <circle cx="145" cy="129" r="42" fill="#ffffff" stroke="#5a2d7a" stroke-width="10"/>
  <rect x="179" y="161" width="14" height="48" rx="7" transform="rotate(45 186 185)" fill="#5a2d7a"/>

  <circle cx="145" cy="130" r="6" fill="url(#accentGrad)"/>
  <path d="M145 107v16" stroke="url(#accentGrad)" stroke-width="7" stroke-linecap="round"/>
</svg>
